<svg width="320" height="300" viewBox="0 0 320 300" fill="none" xmlns="http://www.w3.org/2000/svg">
<rect width="320" height="300" fill="url(#paint0_linear_8_2)"/>
<line x1="58" y1="62.5" x2="258" y2="62.5" stroke="white"/>
<line x1="83" y1="57.5" x2="233" y2="57.5" stroke="white"/>
<line x1="108" y1="52.5" x2="208" y2="52.5" stroke="white"/>
<line x1="258" y1="239.5" x2="58" y2="239.5" stroke="white"/>
<line x1="233" y1="244.5" x2="83" y2="244.5" stroke="white"/>
<line x1="208" y1="249.5" x2="108" y2="249.5" stroke="white"/>
<g filter="url(#filter0_d_8_2)">
<path d="M27.5703 132.93L36.6133 165H32.707L31.3398 159.824H23.7812L22.4336 165H18.5273L27.5703 132.93ZM30.4414 156.387L28.3516 148.359L27.5508 144.648L26.7891 148.359L24.6797 156.387H30.4414ZM40.0117 143.887L42.9609 145.938C43.7682 145.312 44.6341 144.824 45.5586 144.473C46.4831 144.108 47.4401 143.926 48.4297 143.926V147.559C47.388 147.559 46.4635 147.669 45.6562 147.891C44.862 148.112 44.1719 148.535 43.5859 149.16V165H40.0117V143.887ZM52.9805 147.539H51.4375V144.258H52.9805V137.344H56.457V144.258H59.7773V147.539H56.457V156.797C56.457 157.578 56.5156 158.262 56.6328 158.848C56.763 159.434 56.9714 159.935 57.2578 160.352C57.5443 160.755 57.9154 161.081 58.3711 161.328C58.8268 161.576 59.3867 161.758 60.0508 161.875V165.352C57.681 165.247 55.9102 164.499 54.7383 163.105C53.5664 161.699 52.9805 159.583 52.9805 156.758V147.539ZM72.1016 133.535C74.25 133.652 76.1966 134.095 77.9414 134.863C79.6862 135.632 81.1771 136.693 82.4141 138.047C83.6641 139.401 84.6276 141.035 85.3047 142.949C85.9818 144.863 86.3203 147.031 86.3203 149.453C86.3203 151.875 85.9818 154.043 85.3047 155.957C84.6276 157.871 83.6641 159.505 82.4141 160.859C81.1771 162.214 79.6862 163.275 77.9414 164.043C76.1966 164.811 74.25 165.254 72.1016 165.371V133.535ZM75.7344 161.152C76.5677 160.892 77.388 160.475 78.1953 159.902C79.0156 159.329 79.7448 158.574 80.3828 157.637C81.0339 156.699 81.5547 155.56 81.9453 154.219C82.349 152.865 82.5508 151.276 82.5508 149.453C82.5508 147.63 82.349 146.048 81.9453 144.707C81.5547 143.353 81.0339 142.207 80.3828 141.27C79.7448 140.332 79.0156 139.577 78.1953 139.004C77.388 138.431 76.5677 138.014 75.7344 137.754V161.152ZM97.6094 165.371C96.4896 165.371 95.4544 165.13 94.5039 164.648C93.5664 164.154 92.7461 163.444 92.043 162.52C91.3529 161.582 90.8125 160.443 90.4219 159.102C90.0312 157.747 89.8359 156.211 89.8359 154.492C89.8359 152.734 90.0378 151.191 90.4414 149.863C90.8451 148.535 91.3854 147.428 92.0625 146.543C92.7526 145.658 93.5404 144.993 94.4258 144.551C95.3242 144.108 96.2552 143.887 97.2188 143.887C98.3385 143.887 99.3216 144.18 100.168 144.766C101.014 145.339 101.685 146.159 102.18 147.227C102.674 148.294 102.98 149.583 103.098 151.094C103.215 152.591 103.111 154.264 102.785 156.113L93.4492 156.094C93.5534 157.214 93.7552 158.158 94.0547 158.926C94.3672 159.681 94.7318 160.293 95.1484 160.762C95.5781 161.23 96.0404 161.569 96.5352 161.777C97.0299 161.973 97.5247 162.07 98.0195 162.07C98.319 162.07 98.6185 162.038 98.918 161.973C99.2305 161.908 99.5234 161.823 99.7969 161.719C100.083 161.615 100.344 161.497 100.578 161.367C100.812 161.237 101.008 161.113 101.164 160.996L102.492 163.965C102.206 164.147 101.874 164.323 101.496 164.492C101.118 164.661 100.715 164.811 100.285 164.941C99.8685 165.072 99.4258 165.176 98.957 165.254C98.5013 165.332 98.0521 165.371 97.6094 165.371ZM99.582 152.832C99.6471 151.738 99.6211 150.84 99.5039 150.137C99.3997 149.421 99.2305 148.854 98.9961 148.438C98.7747 148.008 98.5013 147.715 98.1758 147.559C97.8503 147.389 97.5052 147.305 97.1406 147.305C96.2031 147.305 95.3958 147.773 94.7188 148.711C94.0547 149.635 93.638 151.009 93.4688 152.832H99.582ZM114.27 165.371C113.189 165.371 112.186 165.15 111.262 164.707C110.337 164.264 109.53 163.594 108.84 162.695C108.163 161.797 107.629 160.677 107.238 159.336C106.861 157.995 106.672 156.426 106.672 154.629C106.672 152.832 106.861 151.263 107.238 149.922C107.629 148.581 108.163 147.461 108.84 146.562C109.53 145.664 110.337 144.993 111.262 144.551C112.186 144.108 113.189 143.887 114.27 143.887C115.064 143.887 115.826 144.01 116.555 144.258C117.297 144.505 117.954 144.798 118.527 145.137L117.062 148.164C116.685 147.943 116.249 147.747 115.754 147.578C115.272 147.396 114.777 147.305 114.27 147.305C113.762 147.305 113.267 147.435 112.785 147.695C112.303 147.956 111.867 148.379 111.477 148.965C111.099 149.551 110.793 150.312 110.559 151.25C110.337 152.174 110.227 153.301 110.227 154.629C110.227 155.957 110.337 157.09 110.559 158.027C110.793 158.952 111.099 159.707 111.477 160.293C111.867 160.879 112.303 161.302 112.785 161.562C113.267 161.823 113.762 161.953 114.27 161.953C114.777 161.953 115.272 161.868 115.754 161.699C116.249 161.517 116.685 161.315 117.062 161.094L118.527 164.121C117.954 164.46 117.297 164.753 116.555 165C115.826 165.247 115.064 165.371 114.27 165.371ZM128.977 165.371C128 165.371 127.062 165.15 126.164 164.707C125.266 164.264 124.465 163.594 123.762 162.695C123.072 161.797 122.518 160.677 122.102 159.336C121.685 157.995 121.477 156.426 121.477 154.629C121.477 152.832 121.685 151.263 122.102 149.922C122.518 148.581 123.072 147.461 123.762 146.562C124.465 145.664 125.266 144.993 126.164 144.551C127.062 144.108 128 143.887 128.977 143.887C129.953 143.887 130.891 144.108 131.789 144.551C132.688 144.993 133.482 145.664 134.172 146.562C134.875 147.461 135.435 148.581 135.852 149.922C136.268 151.263 136.477 152.832 136.477 154.629C136.477 156.426 136.268 157.995 135.852 159.336C135.435 160.677 134.875 161.797 134.172 162.695C133.482 163.594 132.688 164.264 131.789 164.707C130.891 165.15 129.953 165.371 128.977 165.371ZM128.977 161.953C129.445 161.953 129.908 161.829 130.363 161.582C130.819 161.322 131.229 160.905 131.594 160.332C131.971 159.759 132.271 159.004 132.492 158.066C132.727 157.129 132.844 155.983 132.844 154.629C132.844 153.275 132.727 152.135 132.492 151.211C132.271 150.273 131.971 149.518 131.594 148.945C131.229 148.359 130.819 147.943 130.363 147.695C129.908 147.435 129.445 147.305 128.977 147.305C128.508 147.305 128.046 147.435 127.59 147.695C127.134 147.943 126.717 148.359 126.34 148.945C125.975 149.518 125.676 150.273 125.441 151.211C125.22 152.135 125.109 153.275 125.109 154.629C125.109 155.983 125.22 157.129 125.441 158.066C125.676 159.004 125.975 159.759 126.34 160.332C126.717 160.905 127.134 161.322 127.59 161.582C128.046 161.829 128.508 161.953 128.977 161.953ZM148.352 133.887H158.82V137.324H151.984V149.277H157.844V152.715H151.984V161.562H158.82V165H148.352V133.887ZM167.297 154.473L162.238 144.258H165.949L169.25 150.938L172.141 144.258H175.852L171.047 154.531L176.242 165H172.531L169.094 158.086L165.559 165H161.848L167.297 154.473ZM183.254 171.914H179.777V143.867L182.473 145.195C182.967 144.779 183.514 144.46 184.113 144.238C184.712 144.004 185.357 143.887 186.047 143.887C187.049 143.887 188 144.095 188.898 144.512C189.81 144.928 190.604 145.573 191.281 146.445C191.958 147.318 192.492 148.431 192.883 149.785C193.286 151.139 193.488 152.754 193.488 154.629C193.488 156.504 193.286 158.118 192.883 159.473C192.492 160.827 191.958 161.94 191.281 162.812C190.604 163.685 189.81 164.329 188.898 164.746C188 165.163 187.049 165.371 186.047 165.371C185.539 165.371 185.051 165.306 184.582 165.176C184.113 165.046 183.671 164.863 183.254 164.629V171.914ZM183.254 161.113C183.592 161.426 183.977 161.667 184.406 161.836C184.849 162.005 185.318 162.09 185.812 162.09C186.346 162.09 186.861 161.973 187.355 161.738C187.85 161.504 188.286 161.107 188.664 160.547C189.055 159.974 189.367 159.212 189.602 158.262C189.836 157.298 189.953 156.087 189.953 154.629C189.953 153.171 189.836 151.966 189.602 151.016C189.367 150.052 189.055 149.29 188.664 148.73C188.286 148.158 187.85 147.754 187.355 147.52C186.861 147.285 186.346 147.168 185.812 147.168C184.81 147.168 183.957 147.5 183.254 148.164V161.113ZM204.953 165.371C203.833 165.371 202.798 165.13 201.848 164.648C200.91 164.154 200.09 163.444 199.387 162.52C198.697 161.582 198.156 160.443 197.766 159.102C197.375 157.747 197.18 156.211 197.18 154.492C197.18 152.734 197.382 151.191 197.785 149.863C198.189 148.535 198.729 147.428 199.406 146.543C200.096 145.658 200.884 144.993 201.77 144.551C202.668 144.108 203.599 143.887 204.562 143.887C205.682 143.887 206.665 144.18 207.512 144.766C208.358 145.339 209.029 146.159 209.523 147.227C210.018 148.294 210.324 149.583 210.441 151.094C210.559 152.591 210.454 154.264 210.129 156.113L200.793 156.094C200.897 157.214 201.099 158.158 201.398 158.926C201.711 159.681 202.076 160.293 202.492 160.762C202.922 161.23 203.384 161.569 203.879 161.777C204.374 161.973 204.868 162.07 205.363 162.07C205.663 162.07 205.962 162.038 206.262 161.973C206.574 161.908 206.867 161.823 207.141 161.719C207.427 161.615 207.688 161.497 207.922 161.367C208.156 161.237 208.352 161.113 208.508 160.996L209.836 163.965C209.549 164.147 209.217 164.323 208.84 164.492C208.462 164.661 208.059 164.811 207.629 164.941C207.212 165.072 206.77 165.176 206.301 165.254C205.845 165.332 205.396 165.371 204.953 165.371ZM206.926 152.832C206.991 151.738 206.965 150.84 206.848 150.137C206.743 149.421 206.574 148.854 206.34 148.438C206.118 148.008 205.845 147.715 205.52 147.559C205.194 147.389 204.849 147.305 204.484 147.305C203.547 147.305 202.74 147.773 202.062 148.711C201.398 149.635 200.982 151.009 200.812 152.832H206.926ZM215.09 143.887L218.039 145.938C218.846 145.312 219.712 144.824 220.637 144.473C221.561 144.108 222.518 143.926 223.508 143.926V147.559C222.466 147.559 221.542 147.669 220.734 147.891C219.94 148.112 219.25 148.535 218.664 149.16V165H215.09V143.887ZM229.758 140.703C229.38 140.703 229.035 140.638 228.723 140.508C228.41 140.378 228.143 140.202 227.922 139.98C227.701 139.759 227.531 139.505 227.414 139.219C227.297 138.919 227.238 138.607 227.238 138.281C227.238 137.956 227.297 137.65 227.414 137.363C227.531 137.064 227.701 136.803 227.922 136.582C228.143 136.361 228.41 136.185 228.723 136.055C229.035 135.924 229.38 135.859 229.758 135.859C230.135 135.859 230.48 135.924 230.793 136.055C231.105 136.185 231.372 136.361 231.594 136.582C231.815 136.803 231.984 137.064 232.102 137.363C232.219 137.65 232.277 137.956 232.277 138.281C232.277 138.607 232.219 138.919 232.102 139.219C231.984 139.505 231.815 139.759 231.594 139.98C231.372 140.202 231.105 140.378 230.793 140.508C230.48 140.638 230.135 140.703 229.758 140.703ZM227.902 144.258H231.379V165H227.902V144.258ZM244.445 165.371C243.326 165.371 242.29 165.13 241.34 164.648C240.402 164.154 239.582 163.444 238.879 162.52C238.189 161.582 237.648 160.443 237.258 159.102C236.867 157.747 236.672 156.211 236.672 154.492C236.672 152.734 236.874 151.191 237.277 149.863C237.681 148.535 238.221 147.428 238.898 146.543C239.589 145.658 240.376 144.993 241.262 144.551C242.16 144.108 243.091 143.887 244.055 143.887C245.174 143.887 246.158 144.18 247.004 144.766C247.85 145.339 248.521 146.159 249.016 147.227C249.51 148.294 249.816 149.583 249.934 151.094C250.051 152.591 249.947 154.264 249.621 156.113L240.285 156.094C240.389 157.214 240.591 158.158 240.891 158.926C241.203 159.681 241.568 160.293 241.984 160.762C242.414 161.23 242.876 161.569 243.371 161.777C243.866 161.973 244.361 162.07 244.855 162.07C245.155 162.07 245.454 162.038 245.754 161.973C246.066 161.908 246.359 161.823 246.633 161.719C246.919 161.615 247.18 161.497 247.414 161.367C247.648 161.237 247.844 161.113 248 160.996L249.328 163.965C249.042 164.147 248.71 164.323 248.332 164.492C247.954 164.661 247.551 164.811 247.121 164.941C246.704 165.072 246.262 165.176 245.793 165.254C245.337 165.332 244.888 165.371 244.445 165.371ZM246.418 152.832C246.483 151.738 246.457 150.84 246.34 150.137C246.236 149.421 246.066 148.854 245.832 148.438C245.611 148.008 245.337 147.715 245.012 147.559C244.686 147.389 244.341 147.305 243.977 147.305C243.039 147.305 242.232 147.773 241.555 148.711C240.891 149.635 240.474 151.009 240.305 152.832H246.418ZM254.582 143.887L257.512 145.977C257.798 145.69 258.124 145.423 258.488 145.176C258.853 144.928 259.237 144.714 259.641 144.531C260.044 144.349 260.454 144.206 260.871 144.102C261.288 143.997 261.704 143.945 262.121 143.945C264.204 143.945 265.773 144.603 266.828 145.918C267.883 147.22 268.41 149.102 268.41 151.562V165H264.934V151.602C264.934 150.26 264.66 149.238 264.113 148.535C263.579 147.832 262.785 147.48 261.73 147.48C261.105 147.48 260.467 147.637 259.816 147.949C259.178 148.249 258.592 148.724 258.059 149.375V165H254.582V143.887ZM280.598 165.371C279.517 165.371 278.514 165.15 277.59 164.707C276.665 164.264 275.858 163.594 275.168 162.695C274.491 161.797 273.957 160.677 273.566 159.336C273.189 157.995 273 156.426 273 154.629C273 152.832 273.189 151.263 273.566 149.922C273.957 148.581 274.491 147.461 275.168 146.562C275.858 145.664 276.665 144.993 277.59 144.551C278.514 144.108 279.517 143.887 280.598 143.887C281.392 143.887 282.154 144.01 282.883 144.258C283.625 144.505 284.283 144.798 284.855 145.137L283.391 148.164C283.013 147.943 282.577 147.747 282.082 147.578C281.6 147.396 281.105 147.305 280.598 147.305C280.09 147.305 279.595 147.435 279.113 147.695C278.632 147.956 278.195 148.379 277.805 148.965C277.427 149.551 277.121 150.312 276.887 151.25C276.665 152.174 276.555 153.301 276.555 154.629C276.555 155.957 276.665 157.09 276.887 158.027C277.121 158.952 277.427 159.707 277.805 160.293C278.195 160.879 278.632 161.302 279.113 161.562C279.595 161.823 280.09 161.953 280.598 161.953C281.105 161.953 281.6 161.868 282.082 161.699C282.577 161.517 283.013 161.315 283.391 161.094L284.855 164.121C284.283 164.46 283.625 164.753 282.883 165C282.154 165.247 281.392 165.371 280.598 165.371ZM295.656 165.371C294.536 165.371 293.501 165.13 292.551 164.648C291.613 164.154 290.793 163.444 290.09 162.52C289.4 161.582 288.859 160.443 288.469 159.102C288.078 157.747 287.883 156.211 287.883 154.492C287.883 152.734 288.085 151.191 288.488 149.863C288.892 148.535 289.432 147.428 290.109 146.543C290.799 145.658 291.587 144.993 292.473 144.551C293.371 144.108 294.302 143.887 295.266 143.887C296.385 143.887 297.368 144.18 298.215 144.766C299.061 145.339 299.732 146.159 300.227 147.227C300.721 148.294 301.027 149.583 301.145 151.094C301.262 152.591 301.158 154.264 300.832 156.113L291.496 156.094C291.6 157.214 291.802 158.158 292.102 158.926C292.414 159.681 292.779 160.293 293.195 160.762C293.625 161.23 294.087 161.569 294.582 161.777C295.077 161.973 295.572 162.07 296.066 162.07C296.366 162.07 296.665 162.038 296.965 161.973C297.277 161.908 297.57 161.823 297.844 161.719C298.13 161.615 298.391 161.497 298.625 161.367C298.859 161.237 299.055 161.113 299.211 160.996L300.539 163.965C300.253 164.147 299.921 164.323 299.543 164.492C299.165 164.661 298.762 164.811 298.332 164.941C297.915 165.072 297.473 165.176 297.004 165.254C296.548 165.332 296.099 165.371 295.656 165.371ZM297.629 152.832C297.694 151.738 297.668 150.84 297.551 150.137C297.447 149.421 297.277 148.854 297.043 148.438C296.822 148.008 296.548 147.715 296.223 147.559C295.897 147.389 295.552 147.305 295.188 147.305C294.25 147.305 293.443 147.773 292.766 148.711C292.102 149.635 291.685 151.009 291.516 152.832H297.629Z" fill="#FFD057"/>
</g>
<defs>
<filter id="filter0_d_8_2" x="14.5273" y="132.93" width="290.793" height="46.9844" filterUnits="userSpaceOnUse" color-interpolation-filters="sRGB">
<feFlood flood-opacity="0" result="BackgroundImageFix"/>
<feColorMatrix in="SourceAlpha" type="matrix" values="0 0 0 0 0 0 0 0 0 0 0 0 0 0 0 0 0 0 127 0" result="hardAlpha"/>
<feOffset dy="4"/>
<feGaussianBlur stdDeviation="2"/>
<feComposite in2="hardAlpha" operator="out"/>
<feColorMatrix type="matrix" values="0 0 0 0 0 0 0 0 0 0 0 0 0 0 0 0 0 0 0.25 0"/>
<feBlend mode="normal" in2="BackgroundImageFix" result="effect1_dropShadow_8_2"/>
<feBlend mode="normal" in="SourceGraphic" in2="effect1_dropShadow_8_2" result="shape"/>
</filter>
<linearGradient id="paint0_linear_8_2" x1="-6.39999" y1="-5.50001" x2="320.726" y2="346.626" gradientUnits="userSpaceOnUse">
<stop offset="0.0729167" stop-color="#24382F"/>
<stop offset="0.4375" stop-color="#6AC599"/>
<stop offset="0.598958" stop-color="#6AC599"/>
<stop offset="1" stop-color="#24382F"/>
</linearGradient>
</defs>
</svg>
