<svg width="320" height="300" viewBox="0 0 320 300" fill="none" xmlns="http://www.w3.org/2000/svg">
<rect width="320" height="300" fill="url(#paint0_linear_8_2)"/>
<line x1="58" y1="62.5" x2="258" y2="62.5" stroke="white"/>
<line x1="83" y1="57.5" x2="233" y2="57.5" stroke="white"/>
<line x1="108" y1="52.5" x2="208" y2="52.5" stroke="white"/>
<line x1="258" y1="239.5" x2="58" y2="239.5" stroke="white"/>
<line x1="233" y1="244.5" x2="83" y2="244.5" stroke="white"/>
<line x1="208" y1="249.5" x2="108" y2="249.5" stroke="white"/>
<path d="M65.8 140.76C65.8 140.253 65.9867 139.84 66.36 139.52C66.7333 139.173 67.1867 139 67.72 139H85.44C85.44 140.12 85.2133 140.947 84.76 141.48C84.3067 142.013 83.6 142.28 82.64 142.28H69.56V151.24H80.76C80.76 152.36 80.5333 153.187 80.08 153.72C79.6267 154.253 78.9333 154.52 78 154.52H69.56V163.72H83.48C84.4133 163.72 85.1067 163.987 85.56 164.52C86.0133 165.053 86.24 165.88 86.24 167H67.72C67.1867 167 66.7333 166.84 66.36 166.52C65.9867 166.173 65.8 165.747 65.8 165.24V140.76ZM90.8391 149.6C90.8391 147.627 91.9591 146.64 94.1991 146.64V149.2C93.9591 149.44 93.6791 149.8 93.3591 150.28L93.5191 150.44C94.3191 149.32 95.3591 148.413 96.6391 147.72C97.9191 147 99.3057 146.64 100.799 146.64C102.959 146.64 104.666 147.28 105.919 148.56C107.172 149.84 107.799 151.493 107.799 153.52V164.8C107.799 165.68 107.506 166.333 106.919 166.76C106.359 167.16 105.492 167.36 104.319 167.36V153.88C104.319 152.6 103.959 151.587 103.239 150.84C102.519 150.093 101.426 149.72 99.9591 149.72C98.9724 149.72 98.0391 149.933 97.1591 150.36C96.3057 150.76 95.6124 151.32 95.0791 152.04C94.5724 152.733 94.3191 153.493 94.3191 154.32V164.8C94.3191 165.68 94.0257 166.333 93.4391 166.76C92.8791 167.16 92.0124 167.36 90.8391 167.36V149.6ZM123.3 149.48C123.3 148.6 123.567 147.907 124.1 147.4C124.66 146.893 125.5 146.64 126.62 146.64V148.88L125.82 149.92L125.94 150.08C126.767 149.013 127.713 148.173 128.78 147.56C129.847 146.947 131.113 146.64 132.58 146.64C134.873 146.64 136.727 147.28 138.14 148.56C139.553 149.813 140.26 151.493 140.26 153.6V160.44C140.26 162.547 139.527 164.227 138.06 165.48C136.593 166.733 134.687 167.36 132.34 167.36C131.087 167.36 129.927 167.107 128.86 166.6C127.82 166.067 126.9 165.373 126.1 164.52L125.98 164.72C126.167 164.987 126.447 165.28 126.82 165.6V172.64C126.82 174.453 125.647 175.36 123.3 175.36V149.48ZM131.82 164.28C133.393 164.28 134.62 163.933 135.5 163.24C136.38 162.52 136.82 161.533 136.82 160.28V153.76C136.82 152.453 136.38 151.453 135.5 150.76C134.62 150.067 133.38 149.72 131.78 149.72C130.367 149.72 129.18 150.093 128.22 150.84C127.26 151.56 126.78 152.467 126.78 153.56V160.48C126.78 161.547 127.233 162.453 128.14 163.2C129.047 163.92 130.273 164.28 131.82 164.28ZM154.128 149.72C152.635 149.72 151.395 150.173 150.408 151.08C149.422 151.96 148.928 153.04 148.928 154.32V164.8C148.928 165.68 148.635 166.333 148.048 166.76C147.488 167.16 146.622 167.36 145.448 167.36V149.6C145.448 147.627 146.568 146.64 148.808 146.64V149.08C148.382 149.533 148.088 149.933 147.928 150.28L148.088 150.44C149.795 147.907 151.928 146.64 154.488 146.64C155.448 146.64 156.182 146.88 156.688 147.36C157.195 147.813 157.448 148.373 157.448 149.04C157.448 149.52 157.328 149.947 157.088 150.32C156.342 149.92 155.355 149.72 154.128 149.72ZM166.642 167.36C165.016 167.36 163.536 167.053 162.202 166.44C160.896 165.827 159.869 165 159.122 163.96C158.402 162.893 158.042 161.707 158.042 160.4V153.84C158.042 152.507 158.402 151.293 159.122 150.2C159.869 149.107 160.896 148.24 162.202 147.6C163.509 146.96 164.989 146.64 166.642 146.64C168.296 146.64 169.776 146.96 171.082 147.6C172.416 148.24 173.442 149.107 174.162 150.2C174.909 151.293 175.282 152.507 175.282 153.84V160.4C175.282 161.707 174.909 162.893 174.162 163.96C173.416 165 172.389 165.827 171.082 166.44C169.776 167.053 168.296 167.36 166.642 167.36ZM166.642 164.36C168.242 164.36 169.509 163.987 170.442 163.24C171.402 162.467 171.882 161.467 171.882 160.24V153.96C171.882 152.68 171.402 151.64 170.442 150.84C169.509 150.04 168.242 149.64 166.642 149.64C165.069 149.64 163.802 150.04 162.842 150.84C161.882 151.64 161.402 152.68 161.402 153.96V160.24C161.402 161.467 161.869 162.467 162.802 163.24C163.762 163.987 165.042 164.36 166.642 164.36ZM187.316 167.36C185.689 167.36 184.236 167.067 182.956 166.48C181.676 165.893 180.676 165.067 179.956 164C179.262 162.933 178.916 161.72 178.916 160.36V153.88C178.916 152.467 179.262 151.213 179.956 150.12C180.676 149.027 181.662 148.173 182.916 147.56C184.169 146.947 185.609 146.64 187.236 146.64C188.756 146.64 190.102 146.867 191.276 147.32C192.476 147.747 193.409 148.36 194.076 149.16C194.742 149.96 195.076 150.867 195.076 151.88C195.076 152.547 194.809 153.093 194.276 153.52C193.769 153.92 193.102 154.093 192.276 154.04C192.276 152.76 191.809 151.72 190.876 150.92C189.969 150.12 188.782 149.72 187.316 149.72C185.849 149.72 184.662 150.12 183.756 150.92C182.849 151.693 182.396 152.707 182.396 153.96V160.2C182.396 161.4 182.862 162.387 183.796 163.16C184.729 163.907 185.929 164.28 187.396 164.28C188.862 164.28 190.049 163.88 190.956 163.08C191.889 162.28 192.356 161.253 192.356 160C193.209 159.947 193.889 160.12 194.396 160.52C194.929 160.893 195.196 161.427 195.196 162.12C195.196 163.133 194.862 164.04 194.196 164.84C193.529 165.64 192.596 166.267 191.396 166.72C190.196 167.147 188.836 167.36 187.316 167.36ZM207.824 167.36C206.198 167.36 204.744 167.053 203.464 166.44C202.184 165.8 201.184 164.933 200.464 163.84C199.744 162.72 199.384 161.467 199.384 160.08V154.16C199.384 152.747 199.758 151.467 200.504 150.32C201.278 149.173 202.304 148.28 203.584 147.64C204.891 146.973 206.304 146.64 207.824 146.64C209.344 146.64 210.731 146.96 211.984 147.6C213.264 148.24 214.264 149.12 214.984 150.24C215.731 151.36 216.104 152.627 216.104 154.04V156.6C216.104 157.027 215.944 157.387 215.624 157.68C215.304 157.973 214.918 158.12 214.464 158.12H202.784V159.92C202.784 161.28 203.211 162.373 204.064 163.2C204.944 164.027 206.198 164.44 207.824 164.44C209.451 164.44 210.691 164.08 211.544 163.36C212.398 162.64 212.824 161.667 212.824 160.44C213.624 160.387 214.291 160.547 214.824 160.92C215.384 161.267 215.664 161.787 215.664 162.48C215.664 163.333 215.291 164.133 214.544 164.88C213.824 165.627 212.864 166.227 211.664 166.68C210.464 167.133 209.184 167.36 207.824 167.36ZM212.864 155.4V154.04C212.864 152.707 212.398 151.627 211.464 150.8C210.558 149.947 209.344 149.52 207.824 149.52C206.304 149.52 205.078 149.947 204.144 150.8C203.238 151.627 202.784 152.707 202.784 154.04V155.4H212.864ZM227.962 167.36C226.602 167.36 225.322 167.16 224.122 166.76C222.922 166.333 221.949 165.733 221.202 164.96C220.482 164.187 220.122 163.28 220.122 162.24C220.122 160.96 220.895 160.267 222.442 160.16C222.709 161.653 223.335 162.76 224.322 163.48C225.335 164.173 226.615 164.52 228.162 164.52C229.709 164.52 230.909 164.293 231.762 163.84C232.615 163.387 233.042 162.693 233.042 161.76C233.042 161.093 232.869 160.56 232.522 160.16C232.175 159.733 231.615 159.373 230.842 159.08C230.095 158.76 229.015 158.453 227.602 158.16C225.842 157.76 224.442 157.333 223.402 156.88C222.362 156.427 221.562 155.827 221.002 155.08C220.469 154.333 220.202 153.347 220.202 152.12C220.202 151.08 220.522 150.147 221.162 149.32C221.802 148.467 222.682 147.813 223.802 147.36C224.949 146.88 226.242 146.64 227.682 146.64C229.015 146.64 230.269 146.827 231.442 147.2C232.642 147.573 233.602 148.107 234.322 148.8C235.069 149.493 235.442 150.293 235.442 151.2C235.442 151.813 235.202 152.307 234.722 152.68C234.242 153.027 233.575 153.227 232.722 153.28C232.642 152.107 232.162 151.187 231.282 150.52C230.429 149.827 229.229 149.48 227.682 149.48C226.402 149.48 225.389 149.72 224.642 150.2C223.895 150.68 223.522 151.32 223.522 152.12C223.522 152.973 223.869 153.613 224.562 154.04C225.282 154.44 226.495 154.827 228.202 155.2C231.002 155.76 233.055 156.533 234.362 157.52C235.695 158.48 236.362 159.853 236.362 161.64C236.362 163.453 235.629 164.867 234.162 165.88C232.695 166.867 230.629 167.36 227.962 167.36ZM247.541 167.36C245.914 167.36 244.434 167.053 243.101 166.44C241.794 165.827 240.767 165 240.021 163.96C239.301 162.893 238.941 161.707 238.941 160.4V153.84C238.941 152.507 239.301 151.293 240.021 150.2C240.767 149.107 241.794 148.24 243.101 147.6C244.407 146.96 245.887 146.64 247.541 146.64C249.194 146.64 250.674 146.96 251.981 147.6C253.314 148.24 254.341 149.107 255.061 150.2C255.807 151.293 256.181 152.507 256.181 153.84V160.4C256.181 161.707 255.807 162.893 255.061 163.96C254.314 165 253.287 165.827 251.981 166.44C250.674 167.053 249.194 167.36 247.541 167.36ZM247.541 164.36C249.141 164.36 250.407 163.987 251.341 163.24C252.301 162.467 252.781 161.467 252.781 160.24V153.96C252.781 152.68 252.301 151.64 251.341 150.84C250.407 150.04 249.141 149.64 247.541 149.64C245.967 149.64 244.701 150.04 243.741 150.84C242.781 151.64 242.301 152.68 242.301 153.96V160.24C242.301 161.467 242.767 162.467 243.701 163.24C244.661 163.987 245.941 164.36 247.541 164.36Z" fill="white"/>
<defs>
<linearGradient id="paint0_linear_8_2" x1="-6.39999" y1="-5.50001" x2="320.726" y2="346.626" gradientUnits="userSpaceOnUse">
<stop offset="0.0729167" stop-color="#24382F"/>
<stop offset="0.4375" stop-color="#6AC599"/>
<stop offset="0.598958" stop-color="#6AC599"/>
<stop offset="1" stop-color="#24382F"/>
</linearGradient>
</defs>
</svg>
